<svg xmlns="http://www.w3.org/2000/svg" fill="#475be0" class="brand__image" viewBox="0 0 105 38"><g clip-path="url(#a)"><path d="M9.976 8.549a11.49 11.49 0 0 0-6.816 1.809 5.645 5.645 0 0 0-2.524 4.828 5.05 5.05 0 0 0 1.213 3.6 6.54 6.54 0 0 0 2.861 1.808 29.53 29.53 0 0 0 4.272.914 19.62 19.62 0 0 1 3.637.834 1.57 1.57 0 0 1 .832.581c.205.28.311.621.301.969 0 1.564-1.484 2.346-4.452 2.347a14.226 14.226 0 0 1-3.954-.579 12.2 12.2 0 0 1-3.438-1.53L0 27.906a12.68 12.68 0 0 0 3.935 1.709 19.02 19.02 0 0 0 5.047.676 12.18 12.18 0 0 0 7.035-1.789 5.53 5.53 0 0 0 2.583-4.768 4.88 4.88 0 0 0-1.172-3.5 6.565 6.565 0 0 0-2.8-1.749 28.98 28.98 0 0 0-4.174-.913 19.16 19.16 0 0 1-3.756-.936 1.726 1.726 0 0 1-.889-.64 1.72 1.72 0 0 1-.323-1.047 1.96 1.96 0 0 1 1.133-1.73 6.74 6.74 0 0 1 3.318-.656 11.763 11.763 0 0 1 6.081 1.59l1.907-3.776a12.28 12.28 0 0 0-3.577-1.33 19.62 19.62 0 0 0-4.371-.5m32.577.242h-4.967v10.73a6.63 6.63 0 0 1-1.571 4.75 5.57 5.57 0 0 1-4.233 1.648 4.717 4.717 0 0 1-1.992-.305 4.74 4.74 0 0 1-1.684-1.106 6.147 6.147 0 0 1-1.291-4.271V8.789h-4.968V20.91c0 3.101.815 5.439 2.444 7.014a9.22 9.22 0 0 0 6.7 2.364 9.546 9.546 0 0 0 3.855-.776 7.89 7.89 0 0 0 2.981-2.2v2.7h4.729l-.003-21.223zm13.91-.239a11.66 11.66 0 0 0-5.463 1.271 9.6 9.6 0 0 0-3.856 3.6 10.865 10.865 0 0 0-1.411 5.355 10.86 10.86 0 0 0 1.411 5.354 9.67 9.67 0 0 0 3.856 3.636 11.483 11.483 0 0 0 5.463 1.293 10.97 10.97 0 0 0 4.015-.714 8.18 8.18 0 0 0 3.1-2.107v1.112a6.5 6.5 0 0 1-1.629 4.849c-1.087 1.06-2.797 1.59-5.128 1.591a13.81 13.81 0 0 1-4.312-.7 10.67 10.67 0 0 1-3.517-1.847l-2.225 3.735a12.31 12.31 0 0 0 4.53 2.245 21.17 21.17 0 0 0 5.8.776c7.63 0 11.445-3.736 11.446-11.208v-18h-4.73v2.821a7.75 7.75 0 0 0-3.158-2.306 11.22 11.22 0 0 0-4.2-.754l.008-.002zm.324 16.169a5.927 5.927 0 0 1-3.292-.998 5.92 5.92 0 0 1-2.182-2.658 5.924 5.924 0 0 1-.337-3.423 5.93 5.93 0 0 1 1.621-3.033 5.92 5.92 0 0 1 3.033-1.621 5.933 5.933 0 0 1 3.423.337 5.92 5.92 0 0 1 2.659 2.182c.651.974.998 2.12.998 3.292a5.92 5.92 0 0 1-5.923 5.923zM83.053 8.55a12.063 12.063 0 0 0-5.8 1.389 10.19 10.19 0 0 0-4.032 3.857 11.583 11.583 0 0 0-1.451 5.614 11.58 11.58 0 0 0 1.451 5.613 10.135 10.135 0 0 0 4.032 3.875 12.88 12.88 0 0 0 11.646 0 10.13 10.13 0 0 0 4.033-3.875 11.58 11.58 0 0 0 1.451-5.613c0-1.964-.499-3.896-1.451-5.614a10.19 10.19 0 0 0-4.033-3.857 12.14 12.14 0 0 0-5.843-1.389h-.003zm.023 16.794a5.92 5.92 0 0 1-3.291-.998 5.924 5.924 0 0 1-2.182-2.658 5.93 5.93 0 0 1-.338-3.423 5.91 5.91 0 0 1 1.621-3.033 5.917 5.917 0 0 1 6.456-1.285 5.926 5.926 0 0 1 2.659 2.181 5.92 5.92 0 0 1 .548 5.558 5.92 5.92 0 0 1-1.284 1.922 5.93 5.93 0 0 1-1.922 1.285 5.92 5.92 0 0 1-2.267.451zm20.843-19.187c-.691 2.844-3.47 4.033-6.193 2.617s-4.091-4.1-3.043-6.037A5.95 5.95 0 0 1 97.374.47a5.95 5.95 0 0 1 3.502-.35c2.363.514 3.735 3.2 3.043 6.037z"/></g><defs><clipPath id="a"><path fill="475be0" d="M0 0h105v38H0z"/></clipPath></defs></svg>