<svg xmlns="http://www.w3.org/2000/svg" width="105" height="38" fill="#475be0" xmlns:v="https://vecta.io/nano" class="brand__image">
    <g clip-path="url(#svg-sugo-brand)">
      <path d="M9.976 8.549a11.49 11.49 0 0 0-6.816 1.809c-.793.527-1.44 1.246-1.882 2.09s-.662 1.786-.642 2.738a5.05 5.05 0 0 0 1.213 3.6 6.54 6.54 0 0 0 2.861 1.808 29.53 29.53 0 0 0 4.272.914 19.62 19.62 0 0 1 3.637.834 1.57 1.57 0 0 1 .832.581c.205.28.311.621.301.969 0 1.564-1.484 2.346-4.452 2.347-1.339-.006-2.67-.201-3.954-.579a12.2 12.2 0 0 1-3.438-1.53L0 27.906a12.68 12.68 0 0 0 3.935 1.709 19.02 19.02 0 0 0 5.047.676 12.18 12.18 0 0 0 7.035-1.789 5.53 5.53 0 0 0 2.583-4.768 4.88 4.88 0 0 0-1.172-3.5c-.769-.812-1.733-1.414-2.8-1.749a28.98 28.98 0 0 0-4.174-.913 19.16 19.16 0 0 1-3.756-.936c-.358-.111-.67-.336-.889-.64a1.72 1.72 0 0 1-.323-1.047 1.96 1.96 0 0 1 1.133-1.73 6.74 6.74 0 0 1 3.318-.656c2.134-.031 4.236.518 6.081 1.59l1.907-3.776a12.28 12.28 0 0 0-3.577-1.33 19.62 19.62 0 0 0-4.371-.5m32.577.242h-4.967v10.73a6.63 6.63 0 0 1-1.571 4.75 5.57 5.57 0 0 1-4.233 1.648c-.678.043-1.358-.061-1.992-.305a4.74 4.74 0 0 1-1.684-1.106c-.95-1.212-1.411-2.736-1.291-4.271V8.789h-4.968V20.91c0 3.101.815 5.439 2.444 7.014a9.22 9.22 0 0 0 6.7 2.364c1.325.012 2.638-.253 3.855-.776a7.89 7.89 0 0 0 2.981-2.2v2.7h4.729l-.003-21.223zm13.91-.239a11.66 11.66 0 0 0-5.463 1.271 9.6 9.6 0 0 0-3.856 3.6c-.925 1.633-1.411 3.478-1.411 5.355a10.86 10.86 0 0 0 1.411 5.354 9.67 9.67 0 0 0 3.856 3.636c1.686.876 3.563 1.321 5.463 1.293a10.97 10.97 0 0 0 4.015-.714 8.18 8.18 0 0 0 3.1-2.107v1.112a6.5 6.5 0 0 1-1.629 4.849c-1.087 1.06-2.797 1.59-5.128 1.591a13.81 13.81 0 0 1-4.312-.7 10.67 10.67 0 0 1-3.517-1.847l-2.225 3.735a12.31 12.31 0 0 0 4.53 2.245 21.17 21.17 0 0 0 5.8.776c7.63 0 11.445-3.736 11.446-11.208v-18h-4.73v2.821a7.75 7.75 0 0 0-3.158-2.306 11.22 11.22 0 0 0-4.2-.754l.008-.002zm.324 16.169c-1.172 0-2.317-.347-3.292-.998a5.92 5.92 0 0 1-2.182-2.658c-.448-1.082-.566-2.274-.337-3.423a5.93 5.93 0 0 1 1.621-3.033 5.92 5.92 0 0 1 3.033-1.621c1.149-.228 2.34-.111 3.423.337a5.92 5.92 0 0 1 2.659 2.182c.651.974.998 2.12.998 3.292a5.92 5.92 0 0 1-5.923 5.923zM83.053 8.55c-2.019-.03-4.013.448-5.8 1.389a10.19 10.19 0 0 0-4.032 3.857c-.952 1.718-1.451 3.65-1.451 5.614a11.58 11.58 0 0 0 1.451 5.613c.954 1.644 2.351 2.987 4.032 3.875a12.88 12.88 0 0 0 11.646 0 10.13 10.13 0 0 0 4.033-3.875 11.58 11.58 0 0 0 1.451-5.613c0-1.964-.499-3.896-1.451-5.614a10.19 10.19 0 0 0-4.033-3.857 12.14 12.14 0 0 0-5.843-1.389h-.003zm.023 16.794a5.92 5.92 0 0 1-3.291-.998c-.974-.651-1.734-1.576-2.182-2.658a5.93 5.93 0 0 1-.338-3.423 5.91 5.91 0 0 1 1.621-3.033c.829-.828 1.884-1.393 3.033-1.622s2.34-.112 3.423.337 2.008 1.207 2.659 2.181a5.92 5.92 0 0 1 .548 5.558 5.92 5.92 0 0 1-1.284 1.922 5.93 5.93 0 0 1-1.922 1.285 5.92 5.92 0 0 1-2.267.451zm20.843-19.187c-.691 2.844-3.47 4.033-6.193 2.617s-4.091-4.1-3.043-6.037A5.95 5.95 0 0 1 97.374.47a5.95 5.95 0 0 1 3.502-.35c2.363.514 3.735 3.2 3.043 6.037z"></path>
    </g>
    <defs>
      <clipPath id="svg-sugo-brand">
        <rect width="105" height="38" fill="475be0"></rect>
      </clipPath>
    </defs>
  </svg>