<svg xmlns="http://www.w3.org/2000/svg" viewBox="0 0 239.77 57.74"><g data-name="Layer 2"><g fill-rule="evenodd" data-name="Layer 1"><path fill="#231f20" d="M77.52 18.68V18.27a1 1 0 0 0-1-1H70.8a1 1 0 0 0-1 1V46.92a1 1 0 0 0 1 1h5.73a1 1 0 0 0 1-1v-8.44Zm37.81-8.84H60a1 1 0 0 0-1 1.1v4.42a1 1 0 0 0 1 1.06H115.32a1 1 0 0 0 1-1v-4.6a1 1 0 0 0-1-.99Zm0 15.27H96.67a1 1 0 0 1-1-1 8.2 8.2 0 0 1 2.68-5.54c.44-.44.34-1.3-.92-1.3h-7.27a.87.87 0 0 0-.72.38C82.13 28.3 87 46.07 105 46.77h10.3a1 1 0 0 0 1-1v-4.52a1 1 0 0 0-1-1H104a8.36 8.36 0 0 1-8.33-7.57 1 1 0 0 1 1-1h18.62a1 1 0 0 0 1-1v-4.57a1 1 0 0 0-.99-1.01Zm50.49 15.15h-28.19c-17.22-1.81-13.92-23.84.07-23.83h9.06a1 1 0 0 0 1-1v-4.59a1 1 0 0 0-1-1h-11c-24 1.75-24.22 34.73-.36 36.92h30.4a1 1 0 0 0 1-1v-4.53a1 1 0 0 0-1.01-.98Z"/><path fill="#231f20" d="M170.85 24.73h-8.74a6.24 6.24 0 0 1-3.36-.78 3.85 3.85 0 0 1-1.63-3.52q0-4 4.43-4H180a1 1 0 0 0 1-1v-4.6a1 1 0 0 0-1-1h-19.4c-13.66 1-13.66 20.87.1 21.37h8.61a5.61 5.61 0 0 1 3.39 1.14 4.09 4.09 0 0 1 1.62 3.46 3.88 3.88 0 0 1-1.47 3.35 6.75 6.75 0 0 1-4 1.07 1 1 0 0 0-1 1.1v4.36a1 1 0 0 0 1 1.06h3.05l.83-.08c.28 0 .56-.09.83-.14h.21l.72-.18h.08l.75-.25.19-.07.63-.26h.09c.23-.1.45-.22.66-.34l.17-.09.54-.33.09-.06c.2-.13.39-.27.57-.41l.14-.11.45-.39.09-.08c.17-.15.33-.32.49-.48l.12-.13.38-.43.09-.1.4-.54.09-.14.3-.47.07-.12q.17-.29.32-.58l.07-.14c.08-.17.16-.34.23-.51v-.09c2.74-6.5-.67-15.1-10.65-15.49Zm56.34-14.87H217.65a1 1 0 0 0-1 1v4.59a1 1 0 0 0 1 1h9.53a4 4 0 0 1 3.39 1.6 5.87 5.87 0 0 1 1 3.59 6 6 0 0 1-1.57 4.58 4.33 4.33 0 0 1-3.1.87s-8.92 0-9.21 0a1 1 0 0 0-1 1v4.88a1 1 0 0 0 1 1h10.17c17.09-1.97 14.83-23.76-.67-24.11ZM214.14 9.89h-5.79a1 1 0 0 0-1 1V44a.34.34 0 0 0 .34.34.35.35 0 0 0 .19-.06c4-2.54 7-7 7.2-13.43V10.87a1 1 0 0 0-.94-.98ZM205 37a.82.82 0 0 0-.59.25c-4.63 3.87-13 1.81-13.57-6.49V10.88a1 1 0 0 0-1-1h-5.71a1 1 0 0 0-1 1v19.89c.41 13.47 12.78 18.42 22 14.87a1 1 0 0 0 .65-.95V37.8a.82.82 0 0 0-.78-.8Z"/><path fill="#00abec" d="M27.8.11c5 2.25 14 8.9 14.64 9.3a1 1 0 0 1 .26 1.67c-.14.1-11 10-13.11 11.75a1 1 0 0 1-1.66-.61c0-.43-.23-4.81-.23-4.81a6.77 6.77 0 0 0-6.6 2.41.85.85 0 0 1-1.29.09L13.51 12a.8.8 0 0 1 .13-1.2 23.5 23.5 0 0 1 13.14-5.32L26.35 1A1 1 0 0 1 27.8.11Z"/><path fill="#a9def7" d="M58 29.31c-2.61 4.82-9.91 13.31-10.35 13.91a1 1 0 0 1-1.69.14c-.09-.15-9.11-11.74-10.75-13.93a1 1 0 0 1 .73-1.62c.43 0 4.82.12 4.82.12a6.77 6.77 0 0 0-1.92-6.76.84.84 0 0 1 0-1.29l8.36-5.69a.8.8 0 0 1 1.19.22 23.49 23.49 0 0 1 4.32 13.5l4.54-.1a1 1 0 0 1 .75 1.5Z"/><path fill="#00bdf0" d="M.15 28.45c2.61-4.82 9.91-13.31 10.35-13.92a1 1 0 0 1 1.69-.13c.09.15 9.11 11.74 10.75 13.94a1 1 0 0 1-.73 1.66c-.43 0-4.82-.12-4.82-.12a6.77 6.77 0 0 0 1.91 6.76.84.84 0 0 1 0 1.29l-8.36 5.69a.79.79 0 0 1-1.18-.22 23.46 23.46 0 0 1-4.33-13.54L.89 30a1 1 0 0 1-.74-1.55Z"/><path fill="#6dccf3" d="M27.74 57.59C22.92 55 14.43 47.68 13.83 47.24a1 1 0 0 1-.13-1.69c.14-.09 11.74-9.11 13.93-10.75a1 1 0 0 1 1.61.73c0 .43-.12 4.82-.12 4.82a6.78 6.78 0 0 0 6.76-1.91.84.84 0 0 1 1.29 0l5.69 8.36a.8.8 0 0 1-.21 1.2 23.51 23.51 0 0 1-13.49 4.33l.1 4.54a1 1 0 0 1-1.52.72Z"/></g></g></svg>